<?xml version="1.0" encoding="UTF-8" standalone="no"?>
<!-- Generator: Adobe Illustrator 19.0.0, SVG Export Plug-In . SVG Version: 6.00 Build 0)  -->

<svg
   xmlns:dc="http://purl.org/dc/elements/1.1/"
   xmlns:cc="http://creativecommons.org/ns#"
   xmlns:rdf="http://www.w3.org/1999/02/22-rdf-syntax-ns#"
   xmlns:svg="http://www.w3.org/2000/svg"
   xmlns="http://www.w3.org/2000/svg"
   xmlns:sodipodi="http://sodipodi.sourceforge.net/DTD/sodipodi-0.dtd"
   xmlns:inkscape="http://www.inkscape.org/namespaces/inkscape"
   version="1.1"
   id="Layer_1"
   x="0px"
   y="0px"
   width="10mm"
   height="8.6000004mm"
   viewBox="0 0 37.795277 32.503936"
   enable-background="new 0 0 1400 980"
   xml:space="preserve"
   sodipodi:docname="hourglass-mini.svg"
   inkscape:version="0.92.4 (fd57863, 2020-04-02)"><metadata
   id="metadata464"><rdf:RDF><cc:Work
       rdf:about=""><dc:format>image/svg+xml</dc:format><dc:type
         rdf:resource="http://purl.org/dc/dcmitype/StillImage" /><dc:title></dc:title></cc:Work></rdf:RDF></metadata><defs
   id="defs462" /><sodipodi:namedview
   pagecolor="#ffffff"
   bordercolor="#666666"
   borderopacity="1"
   objecttolerance="10"
   gridtolerance="10"
   guidetolerance="10"
   inkscape:pageopacity="0"
   inkscape:pageshadow="2"
   inkscape:window-width="1853"
   inkscape:window-height="1025"
   id="namedview460"
   showgrid="false"
   units="mm"
   inkscape:zoom="15.412245"
   inkscape:cx="16.430082"
   inkscape:cy="20.33773"
   inkscape:window-x="67"
   inkscape:window-y="27"
   inkscape:window-maximized="1"
   inkscape:current-layer="Layer_1" />




<g
   id="XMLID_592_"
   transform="matrix(0.13743934,0,0,0.13743934,-56.092133,-74.333846)">
	<g
   id="XMLID_589_">
		<ellipse
   id="XMLID_1084_"
   cx="545.79999"
   cy="767.20001"
   rx="137.10001"
   ry="8.8000002"
   style="fill:#bcbbbb" />
	</g>
	<g
   id="XMLID_424_">
		<g
   id="XMLID_436_">
			<path
   id="XMLID_1083_"
   d="m 654.5,553.6 c 0,5.3 -4.3,9.7 -9.7,9.7 H 440.9 c -5.3,0 -9.7,-4.3 -9.7,-9.7 v 0 c 0,-5.3 4.3,-9.7 9.7,-9.7 h 203.9 c 5.3,0.1 9.7,4.4 9.7,9.7 z"
   inkscape:connector-curvature="0"
   style="fill:#6f7bb5" />
		</g>
		<g
   id="XMLID_435_">
			<path
   id="XMLID_1082_"
   d="m 654.5,757.6 c 0,-5.3 -4.3,-9.7 -9.7,-9.7 H 440.9 c -5.3,0 -9.7,4.3 -9.7,9.7 v 0 c 0,5.3 4.3,9.7 9.7,9.7 h 203.9 c 5.3,-0.1 9.7,-4.4 9.7,-9.7 z"
   inkscape:connector-curvature="0"
   style="fill:#6f7bb5" />
		</g>
		<g
   id="XMLID_434_">
			<path
   id="XMLID_1081_"
   d="m 652.4,751.6 c -0.1,5.2 -4.4,9.4 -9.7,9.4 H 438.8 c -3.1,0 -5.8,-1.4 -7.6,-3.7 0,0.1 0,0.2 0,0.2 0,5.3 4.3,9.7 9.7,9.7 h 203.9 c 5.3,0 9.7,-4.3 9.7,-9.7 0,-2.2 -0.8,-4.3 -2.1,-5.9 z"
   inkscape:connector-curvature="0"
   style="fill:#4d5b8f" />
		</g>
		<g
   id="XMLID_433_">
			<path
   id="XMLID_1080_"
   d="m 652.4,547.6 c -0.1,5.2 -4.4,9.4 -9.7,9.4 H 438.8 c -3.1,0 -5.8,-1.4 -7.6,-3.7 0,0.1 0,0.2 0,0.2 0,5.3 4.3,9.7 9.7,9.7 h 203.9 c 5.3,0 9.7,-4.3 9.7,-9.7 0,-2.1 -0.8,-4.2 -2.1,-5.9 z"
   inkscape:connector-curvature="0"
   style="fill:#4d5b8f" />
		</g>
		<g
   id="XMLID_432_">
			<path
   id="XMLID_944_"
   d="M 644.8,566.3 H 440.9 c -7,0 -12.7,-5.7 -12.7,-12.7 0,-7 5.7,-12.7 12.7,-12.7 h 203.9 c 7,0 12.7,5.7 12.7,12.7 -0.1,7 -5.7,12.7 -12.7,12.7 z M 440.9,546.9 c -3.7,0 -6.7,3 -6.7,6.7 0,3.7 3,6.7 6.7,6.7 h 203.9 c 3.7,0 6.7,-3 6.7,-6.7 0,-3.7 -3,-6.7 -6.7,-6.7 z"
   inkscape:connector-curvature="0"
   style="fill:#282627" />
		</g>
		<g
   id="XMLID_431_">
			<path
   id="XMLID_941_"
   d="M 644.8,770.2 H 440.9 c -7,0 -12.7,-5.7 -12.7,-12.7 0,-7 5.7,-12.7 12.7,-12.7 h 203.9 c 7,0 12.7,5.7 12.7,12.7 -0.1,7 -5.7,12.7 -12.7,12.7 z M 440.9,750.9 c -3.7,0 -6.7,3 -6.7,6.7 0,3.7 3,6.7 6.7,6.7 h 203.9 c 3.7,0 6.7,-3 6.7,-6.7 0,-3.7 -3,-6.7 -6.7,-6.7 z"
   inkscape:connector-curvature="0"
   style="fill:#282627" />
		</g>
		<g
   id="XMLID_430_">
			<path
   id="XMLID_1079_"
   d="m 606.6,691.3 c -30.5,-26.8 -51.8,-11.9 -51.8,-35.7 0,-23.8 21.3,-8.9 51.8,-35.7 30.5,-26.8 29,-56.6 29,-56.6 H 542.8 450 c 0,0 -1.5,29.8 29,56.6 30.5,26.8 51.8,11.9 51.8,35.7 0,23.8 -21.3,8.9 -51.8,35.7 -30.5,26.8 -29,56.6 -29,56.6 h 92.8 92.8 c 0,0 1.5,-29.8 -29,-56.6 z"
   inkscape:connector-curvature="0"
   style="fill:#f9f4a6" />
		</g>
		<g
   id="XMLID_429_">
			<path
   id="XMLID_938_"
   d="M 635.6,750.9 H 450 c -1.6,0 -2.9,-1.2 -3,-2.8 -0.1,-1.3 -1.2,-31.5 30,-58.9 14.8,-13 27.4,-16.5 36.7,-19.1 10.3,-2.9 14.2,-4 14.2,-14.4 0,-10.4 -3.9,-11.5 -14.2,-14.4 -9.2,-2.6 -21.9,-6.1 -36.7,-19.1 -31.2,-27.4 -30.1,-57.7 -30,-58.9 0.1,-1.6 1.4,-2.8 3,-2.8 h 185.6 c 1.6,0 2.9,1.2 3,2.8 0.1,1.3 1.2,31.5 -30,58.9 -14.8,13 -27.4,16.5 -36.7,19.1 -10.3,2.9 -14.2,4 -14.2,14.4 0,10.4 3.9,11.5 14.2,14.4 9.2,2.6 21.9,6.1 36.7,19.1 31.2,27.4 30.1,57.7 30,58.9 -0.1,1.5 -1.4,2.8 -3,2.8 z m -182.5,-6 h 179.4 c -0.6,-7.8 -4.3,-30.6 -27.9,-51.3 -13.7,-12.1 -25.6,-15.4 -34.3,-17.8 -10.4,-2.9 -18.5,-5.2 -18.5,-20.1 0,-15 8.2,-17.2 18.5,-20.1 8.7,-2.4 20.6,-5.8 34.3,-17.8 23.6,-20.7 27.4,-43.5 27.9,-51.3 H 453.1 c 0.6,7.8 4.3,30.6 27.9,51.3 13.7,12.1 25.6,15.4 34.3,17.8 10.4,2.9 18.5,5.2 18.5,20.1 0,15 -8.2,17.2 -18.5,20.1 -8.7,2.4 -20.6,5.8 -34.3,17.8 -23.6,20.7 -27.3,43.5 -27.9,51.3 z"
   inkscape:connector-curvature="0"
   style="fill:#282627" />
		</g>
		<g
   id="XMLID_428_">
			<path
   id="XMLID_1078_"
   d="m 635.6,747.9 c 0,0 1.5,-29.8 -29,-56.6 -30.5,-26.8 -51.8,-11.9 -51.8,-35.7 0,-23.8 21.3,-8.9 51.8,-35.7 10.4,-9.1 17,-18.6 21.3,-27.1 -26.5,-10.7 -49.4,4.7 -91.8,19.6 -42.4,14.9 -73.4,-11.1 -73.4,-11.1 4,6.1 9.3,12.4 16.3,18.5 30.5,26.8 51.8,11.9 51.8,35.7 0,23.8 -21.3,8.9 -51.8,35.7 -30.5,26.8 -29,56.6 -29,56.6 h 92.8 92.8 z"
   inkscape:connector-curvature="0"
   style="fill:#f9d640" />
		</g>
		<g
   id="XMLID_426_">
			<g
   id="XMLID_427_">
				<path
   id="XMLID_1077_"
   d="m 606.6,691.3 c -3.7,-3.2 -7.2,-5.8 -10.6,-8 25.1,25.4 23.8,51.6 23.8,51.6 H 527 451.7 c -1.9,7.9 -1.6,13 -1.6,13 h 92.8 92.8 c -0.1,0 1.4,-29.8 -29.1,-56.6 z"
   inkscape:connector-curvature="0"
   style="fill:#d3b32b" />
			</g>
		</g>
		<g
   id="XMLID_425_">
			<path
   id="XMLID_935_"
   d="M 635.6,750.9 H 450 c -1.6,0 -2.9,-1.2 -3,-2.8 -0.1,-1.3 -1.2,-31.5 30,-58.9 14.8,-13 27.4,-16.5 36.7,-19.1 10.3,-2.9 14.2,-4 14.2,-14.4 0,-10.4 -3.9,-11.5 -14.2,-14.4 -9.2,-2.6 -21.9,-6.1 -36.7,-19.1 -6.6,-5.8 -12.3,-12.2 -16.9,-19.1 -0.8,-1.2 -0.6,-2.9 0.5,-3.9 1.1,-1 2.8,-1 3.9,0 0.2,0.2 30.2,24.6 70.4,10.5 9.8,-3.4 18.7,-7 26.5,-10.1 26.6,-10.6 45.9,-18.2 67.4,-9.5 0.8,0.3 1.4,0.9 1.7,1.7 0.3,0.8 0.2,1.6 -0.1,2.4 -5.2,10.3 -12.6,19.7 -22,28 -14.8,13 -27.4,16.5 -36.7,19.1 -10.3,2.9 -14.2,4 -14.2,14.4 0,10.4 3.9,11.5 14.2,14.4 9.2,2.6 21.9,6.1 36.7,19.1 31.2,27.4 30.1,57.7 30,58.9 0.1,1.5 -1.2,2.8 -2.8,2.8 z m -182.5,-6 h 179.4 c -0.6,-7.8 -4.3,-30.6 -27.9,-51.3 -13.7,-12.1 -25.6,-15.4 -34.3,-17.8 -10.4,-2.9 -18.5,-5.2 -18.5,-20.1 0,-15 8.2,-17.2 18.5,-20.1 8.7,-2.4 20.6,-5.8 34.3,-17.8 7.9,-7 14.3,-14.8 19.1,-23.2 -18.1,-5.9 -35,0.8 -59.8,10.7 -7.9,3.1 -16.9,6.7 -26.7,10.1 -26.1,9.2 -47.9,3.5 -61.5,-2.7 1.7,1.8 3.5,3.5 5.4,5.1 13.7,12.1 25.6,15.4 34.3,17.8 10.4,2.9 18.5,5.2 18.5,20.1 0,15 -8.2,17.2 -18.5,20.1 -8.7,2.4 -20.6,5.8 -34.3,17.8 -23.8,20.8 -27.5,43.5 -28,51.3 z"
   inkscape:connector-curvature="0"
   style="fill:#282627" />
		</g>
	</g>
</g>



</svg>