<?xml version="1.0" encoding="UTF-8" standalone="no"?>
<!-- Created with Inkscape (http://www.inkscape.org/) -->

<svg
   xmlns:dc="http://purl.org/dc/elements/1.1/"
   xmlns:cc="http://creativecommons.org/ns#"
   xmlns:rdf="http://www.w3.org/1999/02/22-rdf-syntax-ns#"
   xmlns:svg="http://www.w3.org/2000/svg"
   xmlns="http://www.w3.org/2000/svg"
   xmlns:xlink="http://www.w3.org/1999/xlink"
   xmlns:sodipodi="http://sodipodi.sourceforge.net/DTD/sodipodi-0.dtd"
   xmlns:inkscape="http://www.inkscape.org/namespaces/inkscape"
   width="0.55000001cm"
   height="0.69999999cm"
   id="svg5434"
   sodipodi:version="0.32"
   inkscape:version="0.92.4 (fd57863, 2020-04-02)"
   version="1.0"
   sodipodi:docname="Marine_Mine_mini_2.svg"
   inkscape:output_extension="org.inkscape.output.svg.inkscape"
   inkscape:export-filename="/home/roger/mis-dibujos/open/sea_mine_german.png"
   inkscape:export-xdpi="90"
   inkscape:export-ydpi="90">
  <defs
     id="defs5436">
    <linearGradient
       inkscape:collect="always"
       id="linearGradient4395">
      <stop
         style="stop-color:#d3d7cf;stop-opacity:1"
         offset="0"
         id="stop4397" />
      <stop
         style="stop-color:#2e3436;stop-opacity:1"
         offset="1"
         id="stop4399" />
    </linearGradient>
    <radialGradient
       inkscape:collect="always"
       xlink:href="#linearGradient4395"
       id="radialGradient4401"
       cx="172.625"
       cy="27.555403"
       fx="172.625"
       fy="27.555403"
       r="33.375"
       gradientUnits="userSpaceOnUse"
       gradientTransform="matrix(-0.15663125,0.27292639,-0.24352088,-0.13935711,298.49604,610.71973)" />
    <linearGradient
       inkscape:collect="always"
       xlink:href="#linearGradient5118"
       id="linearGradient5132"
       gradientUnits="userSpaceOnUse"
       x1="515.03455"
       y1="1390.1801"
       x2="519.15955"
       y2="1390.1176" />
    <linearGradient
       inkscape:collect="always"
       xlink:href="#linearGradient5110"
       id="linearGradient5130"
       gradientUnits="userSpaceOnUse"
       gradientTransform="translate(9.625,0.0625)"
       x1="506.09705"
       y1="1382.6801"
       x2="507.72205"
       y2="1382.6801" />
    <linearGradient
       inkscape:collect="always"
       xlink:href="#linearGradient5110"
       id="linearGradient5262"
       gradientUnits="userSpaceOnUse"
       gradientTransform="matrix(0.5009764,0.6634837,-0.6770355,0.4909487,1219.3112,390.51946)"
       x1="506.09705"
       y1="1382.6801"
       x2="507.72205"
       y2="1382.6801" />
    <linearGradient
       inkscape:collect="always"
       xlink:href="#linearGradient5118"
       id="linearGradient5260"
       gradientUnits="userSpaceOnUse"
       gradientTransform="matrix(0.6445799,0.9028563,-0.871106,0.6680738,1062.6472,-1367.5725)"
       x1="515.03455"
       y1="1390.1801"
       x2="513.39362"
       y2="1390.4678" />
    <linearGradient
       inkscape:collect="always"
       xlink:href="#linearGradient5146"
       id="linearGradient5258"
       gradientUnits="userSpaceOnUse"
       x1="186.32614"
       y1="-2.7709932"
       x2="189.98601"
       y2="7.567297" />
    <linearGradient
       inkscape:collect="always"
       xlink:href="#linearGradient5110"
       id="linearGradient5360"
       gradientUnits="userSpaceOnUse"
       gradientTransform="matrix(0.5009764,0.6634837,-0.6770355,0.4909487,1219.3112,390.51946)"
       x1="506.09705"
       y1="1382.6801"
       x2="507.72205"
       y2="1382.6801" />
    <linearGradient
       inkscape:collect="always"
       xlink:href="#linearGradient5362"
       id="linearGradient5368"
       x1="192.61835"
       y1="0.40363708"
       x2="187.82356"
       y2="4.9146667"
       gradientUnits="userSpaceOnUse" />
    <linearGradient
       inkscape:collect="always"
       xlink:href="#linearGradient5118"
       id="linearGradient5358"
       gradientUnits="userSpaceOnUse"
       gradientTransform="matrix(0.6445799,0.9028563,-0.871106,0.6680738,1062.6472,-1367.5725)"
       x1="515.03455"
       y1="1390.1801"
       x2="513.39362"
       y2="1390.4678" />
    <linearGradient
       inkscape:collect="always"
       xlink:href="#linearGradient5146"
       id="linearGradient5356"
       gradientUnits="userSpaceOnUse"
       x1="186.32614"
       y1="-2.7709932"
       x2="189.98601"
       y2="7.567297" />
    <linearGradient
       inkscape:collect="always"
       xlink:href="#linearGradient5110"
       id="linearGradient5398"
       gradientUnits="userSpaceOnUse"
       gradientTransform="matrix(0.5009764,0.6634837,-0.6770355,0.4909487,1219.3112,390.51946)"
       x1="506.09705"
       y1="1382.6801"
       x2="508.25366"
       y2="1382.6818" />
    <linearGradient
       inkscape:collect="always"
       xlink:href="#linearGradient5118"
       id="linearGradient5396"
       gradientUnits="userSpaceOnUse"
       gradientTransform="matrix(0.6445799,0.9028563,-0.871106,0.6680738,1062.6472,-1367.5725)"
       x1="514.00525"
       y1="1391.0419"
       x2="518.77557"
       y2="1391.0004" />
    <linearGradient
       inkscape:collect="always"
       xlink:href="#linearGradient5146"
       id="linearGradient5394"
       gradientUnits="userSpaceOnUse"
       x1="186.32614"
       y1="-2.7709932"
       x2="189.98601"
       y2="7.567297" />
    <filter
       inkscape:collect="always"
       id="filter5338">
      <feGaussianBlur
         inkscape:collect="always"
         stdDeviation="0.19678674"
         id="feGaussianBlur5340" />
    </filter>
    <linearGradient
       inkscape:collect="always"
       id="linearGradient5110">
      <stop
         style="stop-color:#000000;stop-opacity:1;"
         offset="0"
         id="stop5112" />
      <stop
         style="stop-color:#d3d7cf;stop-opacity:1"
         offset="1"
         id="stop5114" />
    </linearGradient>
    <linearGradient
       inkscape:collect="always"
       xlink:href="#linearGradient5110"
       id="linearGradient5422"
       gradientUnits="userSpaceOnUse"
       gradientTransform="matrix(0.5009764,0.6634837,-0.6770355,0.4909487,1219.3112,390.51946)"
       x1="506.09705"
       y1="1382.6801"
       x2="507.72205"
       y2="1382.6801" />
    <linearGradient
       inkscape:collect="always"
       id="linearGradient5362">
      <stop
         style="stop-color:#f2f2f2;stop-opacity:1;"
         offset="0"
         id="stop5364" />
      <stop
         style="stop-color:#f2f2f2;stop-opacity:0;"
         offset="1"
         id="stop5366" />
    </linearGradient>
    <linearGradient
       inkscape:collect="always"
       xlink:href="#linearGradient5362"
       id="linearGradient5420"
       gradientUnits="userSpaceOnUse"
       x1="192.61835"
       y1="0.40363708"
       x2="187.82356"
       y2="4.9146667" />
    <linearGradient
       inkscape:collect="always"
       id="linearGradient5118">
      <stop
         style="stop-color:#000000;stop-opacity:1;"
         offset="0"
         id="stop5120" />
      <stop
         style="stop-color:#d3d7cf;stop-opacity:1"
         offset="1"
         id="stop5122" />
    </linearGradient>
    <linearGradient
       inkscape:collect="always"
       xlink:href="#linearGradient5118"
       id="linearGradient5418"
       gradientUnits="userSpaceOnUse"
       gradientTransform="matrix(0.6445799,0.9028563,-0.871106,0.6680738,1062.6472,-1367.5725)"
       x1="515.18054"
       y1="1391.7086"
       x2="520.1402"
       y2="1390.0822" />
    <linearGradient
       inkscape:collect="always"
       id="linearGradient5146">
      <stop
         style="stop-color:#000000;stop-opacity:1;"
         offset="0"
         id="stop5148" />
      <stop
         style="stop-color:#000000;stop-opacity:0;"
         offset="1"
         id="stop5150" />
    </linearGradient>
    <linearGradient
       inkscape:collect="always"
       xlink:href="#linearGradient5146"
       id="linearGradient5416"
       gradientUnits="userSpaceOnUse"
       x1="186.32614"
       y1="-2.7709932"
       x2="189.98601"
       y2="7.567297" />
    <inkscape:perspective
       sodipodi:type="inkscape:persp3d"
       inkscape:vp_x="0 : 526.18109 : 1"
       inkscape:vp_y="0 : 1000 : 0"
       inkscape:vp_z="744.09448 : 526.18109 : 1"
       inkscape:persp3d-origin="372.04724 : 350.78739 : 1"
       id="perspective5442" />
  </defs>
  <sodipodi:namedview
     id="base"
     pagecolor="#ffffff"
     bordercolor="#666666"
     borderopacity="1.0"
     inkscape:pageopacity="0.0"
     inkscape:pageshadow="2"
     inkscape:zoom="22.4"
     inkscape:cx="26.212155"
     inkscape:cy="13.243719"
     inkscape:document-units="px"
     inkscape:current-layer="layer1"
     showgrid="false"
     inkscape:window-width="1853"
     inkscape:window-height="1025"
     inkscape:window-x="67"
     inkscape:window-y="27"
     units="cm"
     inkscape:window-maximized="1" />
  <metadata
     id="metadata5439">
    <rdf:RDF>
      <cc:Work
         rdf:about="">
        <dc:format>image/svg+xml</dc:format>
        <dc:type
           rdf:resource="http://purl.org/dc/dcmitype/StillImage" />
        <dc:title></dc:title>
      </cc:Work>
    </rdf:RDF>
  </metadata>
  <g
     inkscape:label="Capa 1"
     inkscape:groupmode="layer"
     id="layer1"
     transform="translate(-250.8478,-644.92432)">
    <path
       sodipodi:nodetypes="csccccsccsssc"
       id="path5432"
       d="m 267.11131,648.62889 c 0.38914,0.2584 0.50244,0.77566 0.24978,1.15506 -0.13582,0.20397 -0.35179,0.3244 -0.58134,0.35451 l -0.28834,0.49253 -0.98915,-0.65683 0.34329,-0.45601 c -0.0609,-0.22302 -0.0333,-0.4685 0.10247,-0.67244 0.25266,-0.37946 0.77413,-0.47521 1.1633,-0.21682 z m -0.19837,0.29791 c -0.21449,-0.14243 -0.50436,-0.0842 -0.64699,0.13002 -0.1426,0.21418 -0.0842,0.50362 0.13022,0.64605 0.21448,0.14241 0.50436,0.0841 0.64698,-0.13005 0.14262,-0.21414 0.0844,-0.50358 -0.13021,-0.64602 z"
       style="display:inline;overflow:visible;visibility:visible;opacity:1;fill:#616665;fill-opacity:1;fill-rule:nonzero;stroke:none;stroke-width:0.04748133;stroke-linecap:butt;stroke-linejoin:miter;stroke-miterlimit:4;stroke-dasharray:none;stroke-dashoffset:0;stroke-opacity:1;marker:none;marker-start:none;marker-mid:none;marker-end:none;enable-background:accumulate"
       inkscape:connector-curvature="0" />
    <path
       style="display:inline;overflow:visible;visibility:visible;opacity:1;fill:#616665;fill-opacity:1;fill-rule:nonzero;stroke:none;stroke-width:0.04748133;stroke-linecap:butt;stroke-linejoin:miter;stroke-miterlimit:4;stroke-dasharray:none;stroke-dashoffset:0;stroke-opacity:1;marker:none;marker-start:none;marker-mid:none;marker-end:none;enable-background:accumulate"
       d="m 254.44935,649.01426 c -0.38917,0.25839 -0.50245,0.77568 -0.24981,1.15506 0.13581,0.20398 0.3518,0.32441 0.58136,0.35451 l 0.28831,0.49251 0.98916,-0.65683 -0.34328,-0.45599 c 0.0609,-0.223 0.0333,-0.4685 -0.10248,-0.67243 -0.25265,-0.37947 -0.77414,-0.47521 -1.16327,-0.21683 z m 0.19835,0.29792 c 0.21447,-0.14245 0.50437,-0.0842 0.64698,0.13001 0.14263,0.2142 0.0844,0.50362 -0.1302,0.64608 -0.21451,0.1424 -0.50437,0.0841 -0.64699,-0.13005 -0.14261,-0.21418 -0.0844,-0.50361 0.13021,-0.64604 z"
       id="path5424"
       sodipodi:nodetypes="csccccsccsssc"
       inkscape:connector-curvature="0" />
    <ellipse
       style="display:inline;overflow:visible;visibility:visible;opacity:1;fill:url(#radialGradient4401);fill-opacity:1;fill-rule:nonzero;stroke:#445057;stroke-width:0.04748133;stroke-linecap:butt;stroke-linejoin:miter;stroke-miterlimit:4;stroke-dasharray:none;stroke-dashoffset:0;stroke-opacity:1;marker:none;marker-start:none;marker-mid:none;marker-end:none;enable-background:accumulate"
       id="path4393"
       cx="261.09848"
       cy="658.12775"
       rx="9.2973528"
       ry="9.2840891" />
    <g
       id="g5126"
       transform="matrix(0.28067483,0,0,0.28027442,116.33074,258.94891)">
      <path
         sodipodi:nodetypes="ccccc"
         id="rect5091"
         d="m 515.50758,1377.193 v 11.25 h 1.75 v -11.25 z"
         style="display:inline;overflow:visible;visibility:visible;opacity:1;fill:url(#linearGradient5130);fill-opacity:1;fill-rule:nonzero;stroke:none;stroke-width:0.49999997;stroke-linecap:butt;stroke-linejoin:miter;stroke-miterlimit:4;stroke-dasharray:none;stroke-dashoffset:0;stroke-opacity:1;marker:none;marker-start:none;marker-mid:none;marker-end:none;enable-background:accumulate"
         inkscape:connector-curvature="0" />
      <path
         inkscape:transform-center-y="0.4375"
         sodipodi:nodetypes="ccccccc"
         style="display:inline;overflow:visible;visibility:visible;opacity:1;fill:url(#linearGradient5132);fill-opacity:1;fill-rule:nonzero;stroke:none;stroke-width:0.49999997;stroke-linecap:butt;stroke-linejoin:miter;stroke-miterlimit:4;stroke-dasharray:none;stroke-dashoffset:0;stroke-opacity:1;marker:none;marker-start:none;marker-mid:none;marker-end:none;enable-background:accumulate"
         d="m 512.75758,1388.318 v 3 h 2.75 1.75 2.75 v -3 z"
         id="path5108"
         inkscape:connector-curvature="0" />
    </g>
    <path
       style="display:inline;overflow:visible;visibility:visible;fill:#60625e;fill-opacity:1;fill-rule:nonzero;stroke:none;stroke-width:0.5;stroke-linecap:butt;stroke-linejoin:miter;stroke-miterlimit:4;stroke-dasharray:none;stroke-dashoffset:0;stroke-opacity:1;marker:none;marker-start:none;marker-mid:none;marker-end:none;filter:url(#filter5338);enable-background:accumulate"
       d="m 361.20372,527.05008 c 0.067,0.007 0.13243,-0.003 0.1875,-0.0313 0.0551,-0.0284 0.0965,-0.0685 0.125,-0.125 l 5.5625,-4.0312 c 1.13981,1.3945 2.66606,2.0688 3.6875,1.5312 0.0482,-0.0253 0.0805,-0.0638 0.125,-0.0937 l 0.0312,0.0625 2.15625,-1.6563 c 0.0215,-0.01 0.0414,-0.0201 0.0625,-0.0312 0.0387,-0.0204 0.0575,-0.0705 0.0937,-0.0938 0.0983,-0.063 0.20048,-0.1356 0.28125,-0.2187 0.10136,-0.1043 0.17632,-0.2116 0.25,-0.3438 0.0741,-0.1329 0.14149,-0.2805 0.1875,-0.4375 0.046,-0.1567 0.0759,-0.3235 0.0937,-0.5 0.0134,-0.1327 0.0338,-0.2643 0.0312,-0.4062 -8.7e-4,-0.0922 -0.0235,-0.1858 -0.0312,-0.2813 -0.0138,-0.1554 -0.0307,-0.3065 -0.0625,-0.4687 -0.0361,-0.1846 -0.0655,-0.3721 -0.125,-0.5625 -0.039,-0.1273 -0.10653,-0.2461 -0.15625,-0.375 -0.0393,-0.1017 -0.0792,-0.2104 -0.125,-0.3125 -0.0968,-0.2139 -0.18616,-0.4432 -0.3125,-0.6563 -0.0878,-0.148 -0.18495,-0.2686 -0.28125,-0.4062 -0.0609,-0.087 -0.12364,-0.1674 -0.1875,-0.25 -0.005,-0.007 0.005,-0.0244 0,-0.0313 -0.16054,-0.2061 -0.35606,-0.3863 -0.53125,-0.5625 -0.18439,-0.1866 -0.36795,-0.3507 -0.5625,-0.5 -0.57064,-0.4389 -1.1663,-0.7184 -1.71875,-0.7812 -0.3683,-0.0419 -0.69862,-0.002 -1,0.1562 -0.0925,0.0487 -0.18005,0.1181 -0.25,0.1875 -0.0107,0.0107 -0.0208,0.0203 -0.0312,0.0313 -0.0775,0.067 -0.155,0.1369 -0.21875,0.2187 l -1.53125,1.1875 c -0.12239,0.0305 -0.23224,0.0664 -0.34375,0.125 -1.12515,0.5922 -1.23416,2.4337 -0.3125,4.25 l -5.75,4.1563 0.0312,0.0312 c -0.14637,0.1526 -0.15205,0.4778 0.0312,0.7813 0.15712,0.2601 0.39291,0.4161 0.59375,0.4375 z"
       id="path5266"
       transform="matrix(0.28067483,0,0,0.28027442,162.81406,508.93497)"
       inkscape:connector-curvature="0" />
    <g
       id="g5251"
       transform="matrix(0.28067483,0,0,0.28027442,117.5862,259.36737)">
      <ellipse
         transform="matrix(0.5882858,-0.3095899,0.3286724,0.5541302,419.00807,1467.0918)"
         id="path5144"
         style="display:inline;overflow:visible;visibility:visible;opacity:1;fill:url(#linearGradient5258);fill-opacity:1;fill-rule:nonzero;stroke:none;stroke-width:0.5;stroke-linecap:butt;stroke-linejoin:miter;stroke-miterlimit:4;stroke-dasharray:none;stroke-dashoffset:0;stroke-opacity:1;marker:none;marker-start:none;marker-mid:none;marker-end:none;enable-background:accumulate"
         cx="188.53235"
         cy="2.4488652"
         rx="3.7123106"
         ry="6.319767" />
      <path
         id="path5138"
         transform="translate(347.09705,1381.9997)"
         d="m 183.78125,22.875 -2.21875,1.71875 -0.0937,0.0625 c -0.10255,0.06442 -0.19749,0.13276 -0.28125,0.21875 -0.82035,0.84222 -0.76071,2.639732 0.25,4.34375 1.14658,1.93309 3.07573,3.00941 4.28125,2.375 0.18505,-0.09738 0.30714,-0.246355 0.4375,-0.40625 l 2.3125,-1.78125 z"
         style="display:inline;overflow:visible;visibility:visible;fill:url(#linearGradient5260);fill-opacity:1;fill-rule:nonzero;stroke:none;stroke-width:0.49999997;stroke-linecap:butt;stroke-linejoin:miter;stroke-miterlimit:4;stroke-dasharray:none;stroke-dashoffset:0;stroke-opacity:1;marker:none;marker-start:none;marker-mid:none;marker-end:none;enable-background:accumulate"
         inkscape:connector-curvature="0" />
      <ellipse
         transform="matrix(0.5882858,-0.3095899,0.3286724,0.5541302,421.39455,1465.3682)"
         id="path5186"
         style="display:inline;overflow:visible;visibility:visible;opacity:1;fill:#a4a7a1;fill-opacity:1;fill-rule:nonzero;stroke:none;stroke-width:0.5;stroke-linecap:butt;stroke-linejoin:miter;stroke-miterlimit:4;stroke-dasharray:none;stroke-dashoffset:0;stroke-opacity:1;marker:none;marker-start:none;marker-mid:none;marker-end:none;enable-background:accumulate"
         cx="188.53235"
         cy="2.4488652"
         rx="3.7123106"
         ry="6.319767" />
      <path
         id="path5136"
         d="m 540.37765,1402.2519 -7.625,5.5313 0.0312,0.031 c -0.18169,0.1287 -0.1964,0.4427 0,0.75 0.2095,0.3279 0.56098,0.5139 0.78125,0.4063 0.0206,-0.01 0.0456,-0.017 0.0625,-0.031 l 7.625,-5.5 z"
         style="display:inline;overflow:visible;visibility:visible;fill:url(#linearGradient5262);fill-opacity:1;fill-rule:nonzero;stroke:none;stroke-width:0.49999997;stroke-linecap:butt;stroke-linejoin:miter;stroke-miterlimit:4;stroke-dasharray:none;stroke-dashoffset:0;stroke-opacity:1;marker:none;marker-start:none;marker-mid:none;marker-end:none;enable-background:accumulate"
         inkscape:connector-curvature="0" />
      <ellipse
         transform="matrix(0.1074888,-0.05553994,0.06005342,0.0994101,520.35387,1413.0852)"
         id="path5203"
         style="display:inline;overflow:visible;visibility:visible;opacity:1;fill:#a5a8a2;fill-opacity:1;fill-rule:nonzero;stroke:none;stroke-width:0.5;stroke-linecap:butt;stroke-linejoin:miter;stroke-miterlimit:4;stroke-dasharray:none;stroke-dashoffset:0;stroke-opacity:1;marker:none;marker-start:none;marker-mid:none;marker-end:none;enable-background:accumulate"
         cx="188.53235"
         cy="2.4488652"
         rx="3.7123106"
         ry="6.319767" />
    </g>
    <g
       transform="matrix(-0.28067483,0,0,0.28027442,403.56844,259.16916)"
       id="g5344">
      <ellipse
         style="display:inline;overflow:visible;visibility:visible;opacity:1;fill:url(#linearGradient5356);fill-opacity:1;fill-rule:nonzero;stroke:none;stroke-width:0.5;stroke-linecap:butt;stroke-linejoin:miter;stroke-miterlimit:4;stroke-dasharray:none;stroke-dashoffset:0;stroke-opacity:1;marker:none;marker-start:none;marker-mid:none;marker-end:none;enable-background:accumulate"
         id="path5346"
         transform="matrix(0.5882858,-0.3095899,0.3286724,0.5541302,419.00807,1467.0918)"
         cx="188.53235"
         cy="2.4488652"
         rx="3.7123106"
         ry="6.319767" />
      <path
         style="display:inline;overflow:visible;visibility:visible;fill:url(#linearGradient5358);fill-opacity:1;fill-rule:nonzero;stroke:none;stroke-width:0.49999997;stroke-linecap:butt;stroke-linejoin:miter;stroke-miterlimit:4;stroke-dasharray:none;stroke-dashoffset:0;stroke-opacity:1;marker:none;marker-start:none;marker-mid:none;marker-end:none;enable-background:accumulate"
         d="m 183.78125,22.875 -2.21875,1.71875 -0.0937,0.0625 c -0.10255,0.06442 -0.19749,0.13276 -0.28125,0.21875 -0.82035,0.84222 -0.76071,2.639732 0.25,4.34375 1.14658,1.93309 3.07573,3.00941 4.28125,2.375 0.18505,-0.09738 0.30714,-0.246355 0.4375,-0.40625 l 2.3125,-1.78125 z"
         transform="translate(347.09705,1381.9997)"
         id="path5348"
         inkscape:connector-curvature="0" />
      <ellipse
         style="display:inline;overflow:visible;visibility:visible;opacity:1;fill:#000000;fill-opacity:1;fill-rule:nonzero;stroke:url(#linearGradient5368);stroke-width:0.16928929;stroke-linecap:butt;stroke-linejoin:miter;stroke-miterlimit:4;stroke-dasharray:none;stroke-dashoffset:0;stroke-opacity:1;marker:none;marker-start:none;marker-mid:none;marker-end:none;enable-background:accumulate"
         id="path5350"
         transform="matrix(0.5882858,-0.3095899,0.3286724,0.5541302,421.39455,1465.3682)"
         cx="188.53235"
         cy="2.4488652"
         rx="3.7123106"
         ry="6.319767" />
      <path
         style="display:inline;overflow:visible;visibility:visible;fill:url(#linearGradient5360);fill-opacity:1;fill-rule:nonzero;stroke:none;stroke-width:0.49999997;stroke-linecap:butt;stroke-linejoin:miter;stroke-miterlimit:4;stroke-dasharray:none;stroke-dashoffset:0;stroke-opacity:1;marker:none;marker-start:none;marker-mid:none;marker-end:none;enable-background:accumulate"
         d="m 540.37765,1402.2519 -7.625,5.5313 0.0312,0.031 c -0.18169,0.1287 -0.1964,0.4427 0,0.75 0.2095,0.3279 0.56098,0.5139 0.78125,0.4063 0.0206,-0.01 0.0456,-0.017 0.0625,-0.031 l 7.625,-5.5 z"
         id="path5352"
         inkscape:connector-curvature="0" />
      <ellipse
         style="display:inline;overflow:visible;visibility:visible;opacity:1;fill:#000000;fill-opacity:1;fill-rule:nonzero;stroke:none;stroke-width:0.5;stroke-linecap:butt;stroke-linejoin:miter;stroke-miterlimit:4;stroke-dasharray:none;stroke-dashoffset:0;stroke-opacity:1;marker:none;marker-start:none;marker-mid:none;marker-end:none;enable-background:accumulate"
         id="path5354"
         transform="matrix(0.1074888,-0.05553994,0.06005342,0.0994101,520.35387,1413.0852)"
         cx="188.53235"
         cy="2.4488652"
         rx="3.7123106"
         ry="6.319767" />
    </g>
    <g
       transform="matrix(0.28067483,0,0,-0.28027442,116.33074,1057.3363)"
       id="g5370">
      <path
         style="display:inline;overflow:visible;visibility:visible;opacity:1;fill:#2e3436;fill-opacity:1;fill-rule:nonzero;stroke:none;stroke-width:0.49999997;stroke-linecap:butt;stroke-linejoin:miter;stroke-miterlimit:4;stroke-dasharray:none;stroke-dashoffset:0;stroke-opacity:1;marker:none;marker-start:none;marker-mid:none;marker-end:none;enable-background:accumulate"
         d="m 515.50758,1377.193 v 11.25 h 1.75 v -11.25 z"
         id="path5372"
         sodipodi:nodetypes="ccccc"
         inkscape:connector-curvature="0" />
      <path
         id="path5374"
         d="m 512.75758,1388.318 v 3 h 2.75 1.75 2.75 v -3 z"
         style="display:inline;overflow:visible;visibility:visible;opacity:1;fill:#2e3436;fill-opacity:1;fill-rule:nonzero;stroke:none;stroke-width:0.49999997;stroke-linecap:butt;stroke-linejoin:miter;stroke-miterlimit:4;stroke-dasharray:none;stroke-dashoffset:0;stroke-opacity:1;marker:none;marker-start:none;marker-mid:none;marker-end:none;enable-background:accumulate"
         sodipodi:nodetypes="ccccccc"
         inkscape:transform-center-y="0.4375"
         inkscape:connector-curvature="0" />
    </g>
    <g
       transform="matrix(0.28067483,0,0,-0.28027442,117.53659,1058.0756)"
       id="g5382">
      <ellipse
         style="display:inline;overflow:visible;visibility:visible;opacity:1;fill:url(#linearGradient5394);fill-opacity:1;fill-rule:nonzero;stroke:none;stroke-width:0.5;stroke-linecap:butt;stroke-linejoin:miter;stroke-miterlimit:4;stroke-dasharray:none;stroke-dashoffset:0;stroke-opacity:1;marker:none;marker-start:none;marker-mid:none;marker-end:none;enable-background:accumulate"
         id="path5384"
         transform="matrix(0.5882858,-0.3095899,0.3286724,0.5541302,419.00807,1467.0918)"
         cx="188.53235"
         cy="2.4488652"
         rx="3.7123106"
         ry="6.319767" />
      <path
         style="display:inline;overflow:visible;visibility:visible;fill:url(#linearGradient5396);fill-opacity:1;fill-rule:nonzero;stroke:none;stroke-width:0.49999997;stroke-linecap:butt;stroke-linejoin:miter;stroke-miterlimit:4;stroke-dasharray:none;stroke-dashoffset:0;stroke-opacity:1;marker:none;marker-start:none;marker-mid:none;marker-end:none;enable-background:accumulate"
         d="m 183.78125,22.875 -2.21875,1.71875 -0.0937,0.0625 c -0.10255,0.06442 -0.19749,0.13276 -0.28125,0.21875 -0.82035,0.84222 -0.76071,2.639732 0.25,4.34375 1.14658,1.93309 3.07573,3.00941 4.28125,2.375 0.18505,-0.09738 0.30714,-0.246355 0.4375,-0.40625 l 2.3125,-1.78125 z"
         transform="translate(347.09705,1381.9997)"
         id="path5386"
         inkscape:connector-curvature="0" />
      <ellipse
         style="display:inline;overflow:visible;visibility:visible;opacity:1;fill:#5e6463;fill-opacity:1;fill-rule:nonzero;stroke:none;stroke-width:0.5;stroke-linecap:butt;stroke-linejoin:miter;stroke-miterlimit:4;stroke-dasharray:none;stroke-dashoffset:0;stroke-opacity:1;marker:none;marker-start:none;marker-mid:none;marker-end:none;enable-background:accumulate"
         id="path5388"
         transform="matrix(0.5882858,-0.3095899,0.3286724,0.5541302,421.39455,1465.3682)"
         cx="188.53235"
         cy="2.4488652"
         rx="3.7123106"
         ry="6.319767" />
      <path
         style="display:inline;overflow:visible;visibility:visible;fill:url(#linearGradient5398);fill-opacity:1;fill-rule:nonzero;stroke:none;stroke-width:0.49999997;stroke-linecap:butt;stroke-linejoin:miter;stroke-miterlimit:4;stroke-dasharray:none;stroke-dashoffset:0;stroke-opacity:1;marker:none;marker-start:none;marker-mid:none;marker-end:none;enable-background:accumulate"
         d="m 540.37765,1402.2519 -7.625,5.5313 0.0312,0.031 c -0.18169,0.1287 -0.1964,0.4427 0,0.75 0.2095,0.3279 0.56098,0.5139 0.78125,0.4063 0.0206,-0.01 0.0456,-0.017 0.0625,-0.031 l 7.625,-5.5 z"
         id="path5390"
         inkscape:connector-curvature="0" />
      <ellipse
         style="display:inline;overflow:visible;visibility:visible;opacity:1;fill:#636867;fill-opacity:1;fill-rule:nonzero;stroke:none;stroke-width:0.5;stroke-linecap:butt;stroke-linejoin:miter;stroke-miterlimit:4;stroke-dasharray:none;stroke-dashoffset:0;stroke-opacity:1;marker:none;marker-start:none;marker-mid:none;marker-end:none;enable-background:accumulate"
         id="path5392"
         transform="matrix(0.1074888,-0.05553994,0.06005342,0.0994101,520.35387,1413.0852)"
         cx="188.53235"
         cy="2.4488652"
         rx="3.7123106"
         ry="6.319767" />
    </g>
    <path
       id="path5400"
       d="m 370.36686,519.98418 c 0.067,0.007 0.13243,-0.003 0.1875,-0.0313 0.0551,-0.0284 0.0965,-0.0685 0.125,-0.125 l 1.4375,-1.0312 -0.78125,-1.2188 -1.625,1.1563 0.0312,0.0312 c -0.14637,0.1526 -0.15205,0.4778 0.0312,0.7813 0.15712,0.2601 0.39291,0.4161 0.59375,0.4375 z"
       style="display:inline;overflow:visible;visibility:visible;fill:#60625e;fill-opacity:1;fill-rule:nonzero;stroke:none;stroke-width:0.5;stroke-linecap:butt;stroke-linejoin:miter;stroke-miterlimit:4;stroke-dasharray:none;stroke-dashoffset:0;stroke-opacity:1;marker:none;marker-start:none;marker-mid:none;marker-end:none;filter:url(#filter5338);enable-background:accumulate"
       sodipodi:nodetypes="cscccccsc"
       transform="matrix(0.28067483,0,0,0.28027442,162.81406,508.93497)"
       inkscape:connector-curvature="0" />
    <path
       sodipodi:nodetypes="cscccccsc"
       style="display:inline;overflow:visible;visibility:visible;fill:#555753;fill-opacity:1;fill-rule:nonzero;stroke:none;stroke-width:0.5;stroke-linecap:butt;stroke-linejoin:miter;stroke-miterlimit:4;stroke-dasharray:none;stroke-dashoffset:0;stroke-opacity:1;marker:none;marker-start:none;marker-mid:none;marker-end:none;filter:url(#filter5338);enable-background:accumulate"
       d="m 370.27311,554.64498 c 0.067,0.007 0.31993,0.591 0.1875,-0.0313 -0.0129,-0.0606 0.0965,-0.0685 0.125,-0.125 l 1.53125,-2.2812 -0.78125,-1.2188 -1.71875,2.4063 0.0312,0.0312 c -0.14637,0.1526 -0.15205,0.4778 0.0312,0.7813 0.15712,0.2601 0.39291,0.4161 0.59375,0.4375 z"
       id="path5402"
       transform="matrix(0.28067483,0,0,0.28027442,162.81406,508.93497)"
       inkscape:connector-curvature="0" />
    <g
       id="g5404"
       transform="matrix(-0.28067483,0,0,-0.28027442,404.41047,1058.6442)">
      <ellipse
         transform="matrix(0.5882858,-0.3095899,0.3286724,0.5541302,419.00807,1467.0918)"
         id="path5406"
         style="display:inline;overflow:visible;visibility:visible;opacity:1;fill:url(#linearGradient5416);fill-opacity:1;fill-rule:nonzero;stroke:none;stroke-width:0.5;stroke-linecap:butt;stroke-linejoin:miter;stroke-miterlimit:4;stroke-dasharray:none;stroke-dashoffset:0;stroke-opacity:1;marker:none;marker-start:none;marker-mid:none;marker-end:none;enable-background:accumulate"
         cx="188.53235"
         cy="2.4488652"
         rx="3.7123106"
         ry="6.319767" />
      <path
         id="path5408"
         transform="translate(347.09705,1381.9997)"
         d="m 183.78125,22.875 -2.21875,1.71875 -0.0937,0.0625 c -0.10255,0.06442 -0.19749,0.13276 -0.28125,0.21875 -0.82035,0.84222 -0.76071,2.639732 0.25,4.34375 1.14658,1.93309 3.07573,3.00941 4.28125,2.375 0.18505,-0.09738 0.30714,-0.246355 0.4375,-0.40625 l 2.3125,-1.78125 z"
         style="display:inline;overflow:visible;visibility:visible;fill:url(#linearGradient5418);fill-opacity:1;fill-rule:nonzero;stroke:none;stroke-width:0.49999997;stroke-linecap:butt;stroke-linejoin:miter;stroke-miterlimit:4;stroke-dasharray:none;stroke-dashoffset:0;stroke-opacity:1;marker:none;marker-start:none;marker-mid:none;marker-end:none;enable-background:accumulate"
         inkscape:connector-curvature="0" />
      <ellipse
         transform="matrix(0.5882858,-0.3095899,0.3286724,0.5541302,421.39455,1465.3682)"
         id="path5410"
         style="display:inline;overflow:visible;visibility:visible;opacity:1;fill:#000000;fill-opacity:1;fill-rule:nonzero;stroke:url(#linearGradient5420);stroke-width:0.16928929;stroke-linecap:butt;stroke-linejoin:miter;stroke-miterlimit:4;stroke-dasharray:none;stroke-dashoffset:0;stroke-opacity:1;marker:none;marker-start:none;marker-mid:none;marker-end:none;enable-background:accumulate"
         cx="188.53235"
         cy="2.4488652"
         rx="3.7123106"
         ry="6.319767" />
      <path
         id="path5412"
         d="m 540.37765,1402.2519 -7.625,5.5313 0.0312,0.031 c -0.18169,0.1287 -0.1964,0.4427 0,0.75 0.2095,0.3279 0.56098,0.5139 0.78125,0.4063 0.0206,-0.01 0.0456,-0.017 0.0625,-0.031 l 7.625,-5.5 z"
         style="display:inline;overflow:visible;visibility:visible;fill:url(#linearGradient5422);fill-opacity:1;fill-rule:nonzero;stroke:none;stroke-width:0.49999997;stroke-linecap:butt;stroke-linejoin:miter;stroke-miterlimit:4;stroke-dasharray:none;stroke-dashoffset:0;stroke-opacity:1;marker:none;marker-start:none;marker-mid:none;marker-end:none;enable-background:accumulate"
         inkscape:connector-curvature="0" />
      <ellipse
         transform="matrix(0.1074888,-0.05553994,0.06005342,0.0994101,520.35387,1413.0852)"
         id="path5414"
         style="display:inline;overflow:visible;visibility:visible;opacity:1;fill:#000000;fill-opacity:1;fill-rule:nonzero;stroke:none;stroke-width:0.5;stroke-linecap:butt;stroke-linejoin:miter;stroke-miterlimit:4;stroke-dasharray:none;stroke-dashoffset:0;stroke-opacity:1;marker:none;marker-start:none;marker-mid:none;marker-end:none;enable-background:accumulate"
         cx="188.53235"
         cy="2.4488652"
         rx="3.7123106"
         ry="6.319767" />
    </g>
  </g>
</svg>
